<?xml version="1.0" encoding="utf-8"?>
<!-- Generator: Adobe Illustrator 24.3.0, SVG Export Plug-In . SVG Version: 6.00 Build 0)  -->
<svg version="1.1" id="Layer_1" xmlns="http://www.w3.org/2000/svg" xmlns:xlink="http://www.w3.org/1999/xlink" x="0px" y="0px"
	 viewBox="0 0 512 512" style="enable-background:new 0 0 512 512;" xml:space="preserve">
<style type="text/css">
	.st0{fill:#0071BC;}
	.st1{fill:#FFD400;}
	.st2{fill:#5FBC56;}
</style>
<g id="XMLID_1_">
	<polygon id="XMLID_13_" class="st0" points="479.23,315.27 479.23,304.15 475.28,304.15 475.28,302.4 485.67,302.4 485.67,304.15 
		481.72,304.15 481.72,315.27 	"/>
	<path id="XMLID_12_" class="st0" d="M502.78,315.27h-2.63v-9.95l0,0c-1.46,3.51-2.93,6.73-4.24,9.95h-1.46
		c-1.32-3.22-2.78-6.44-4.1-9.95l0,0v9.95h-2.05v-12.73h3.22c1.32,3.07,3.36,8.19,3.95,9.8l0,0c0.59-1.76,2.93-6.58,4.39-9.8h2.93
		L502.78,315.27L502.78,315.27z"/>
	<path id="XMLID_11_" class="st0" d="M236.11,338.97c2.19,0.44,9.8,2.63,9.8,8.05v87.48h26.04v-98.74h-35.84V338.97L236.11,338.97z"
		/>
	<path class="st0" d="M31.6,335.9v3.07c3.22,0.59,9.95,2.63,7.17,8.78L0,434.49h20.48l12.14-27.06h43.01l10.68,27.06h26.92
		l-38.47-98.74H31.6V335.9z M38.18,395.14l17.41-38.77l15.21,38.77H38.18L38.18,395.14z"/>
	<path class="st0" d="M430.37,335.9v3.07c3.07,0.59,9.95,2.63,7.17,8.78l-38.77,86.75h20.48l12.14-27.06h43.01l10.68,27.06H512
		l-38.47-98.74L430.37,335.9L430.37,335.9z M436.96,395.14l17.41-38.77l15.21,38.77H436.96L436.96,395.14z"/>
	<path id="XMLID_6_" class="st0" d="M361.18,434.49l41.11-98.74h-19.46l-30.13,72.41l-28.67-72.41h-36.57v3.07
		c4.24,0.88,8.92,2.63,11.12,8.05l34.67,87.48L361.18,434.49L361.18,434.49z"/>
	<path id="XMLID_5_" class="st0" d="M180.96,434.49l41.11-98.74h-19.46l-30.13,72.41l-28.67-72.41h-36.57v3.07
		c4.24,0.88,8.92,2.63,11.12,8.05l34.67,87.48L180.96,434.49L180.96,434.49z"/>
	<path id="XMLID_4_" class="st1" d="M324.46,255.44L307.05,77.55l0,0L289.5,258.51C300.91,257.19,312.61,256.17,324.46,255.44
		L324.46,255.44z"/>
	<path id="XMLID_3_" class="st2" d="M366.59,254.12V77.41h-59.54l0,0l17.26,177.88C338.21,254.71,352.26,254.12,366.59,254.12
		L366.59,254.12z"/>
	<path id="XMLID_2_" class="st0" d="M289.5,258.36l17.55-180.96l0,0H151.26l0.15,214.75C187.98,276.36,235.67,264.36,289.5,258.36
		L289.5,258.36z"/>
</g>
</svg>
