<svg id="Layer_1" data-name="Layer 1" xmlns="http://www.w3.org/2000/svg" viewBox="0 0 360.69 61.22"><title>Barclays logo - Brandlogos.net</title><path d="M563.18,371A12,12,0,0,0,552.92,365c-3.83,0-7.21,1.58-7.21,5.65,0,3.44,4.25,5.77,8.67,8.63,4.84,3,9.84,6.76,9.84,13.22,0,8.45-8.2,13.62-17.7,13.62a35,35,0,0,1-12.57-2.48l.75-11.26c2.22,4.48,6.35,8,12.46,8,4.71,0,8.21-2.28,8.21-6.25,0-3.36-2.87-5.45-6.35-7.56-7.33-4.43-12-8-12-14.39,0-9.59,8-12.81,16.36-12.81,4.84,0,7.87.9,11,.9Zm-40.71,10.09c-1.05,1.75-2.39,4.13-3.19,5.89a63,63,0,0,0-1.06,12.64c0,2,.35,4.77,1.28,5.69H507.32c2.16-2,3-14.55,2.91-18.51A94.92,94.92,0,0,0,503,369.13c-2.13-4.13-4.66-8-6.22-8.78,2.74-.25,6.22-.42,7.92-.42,3,0,3.84.42,5.7,4.47,2.92,6.58,5.08,11.54,6.35,15.22,3.09-4.85,5.25-8.18,8.06-12.7a7.74,7.74,0,0,0,1.27-3.86,4.59,4.59,0,0,0-.64-2.72h12c-2.32.5-12.81,17-15,20.72m-42.34-10.19-7.22,15.66h11.76Zm14.14,34.85c-3.82,0-4.12-.13-7.22-10.72l-1.09-3.92c-1.88.89-5.18,1.3-10.48,1.3h-5.36l-.93,2c-1.35,3-3.16,6.46-3.16,8.91a7.32,7.32,0,0,0,.3,2h-31.8c1.81-2,2.39-8.61,3.26-20.55l.2-2.85c.45-6.82.8-12.06.75-15.74-.06-3-.35-4.95-1.18-5.79h12.31c-1.74,1.33-2.39,8.54-3.2,20.48l-.24,2.86c-.28,4.42-.87,9-.87,13.39,0,2,.82,2.51,2.92,2.51,7.45,0,9.33-.17,12.69-2.45,2.11-3.83,4.49-8.68,6.82-13.67l3.15-6.71c3-6.3,5.88-12.7,5.88-13.92a6,6,0,0,0-.58-2.49h9.79s4,14.66,4.83,17.81l1.92,7.09c3.32,12,5.41,17.77,8.21,20a65.65,65.65,0,0,1-6.88.43m-79.26.44c-11.58,0-18.28-9.53-18.28-20.25,0-14.92,8.09-26.45,23.53-26.45,4.82,0,7.11.9,11,.9l-1.17,11.46c-2.21-4-5.82-6.77-10.67-6.77-9.6,0-13.51,10.38-13.51,19.28,0,9.68,5.42,15,12.64,15,3.91,0,7.34-1,13.1-5.08-2.33,7.48-7.75,11.94-16.66,11.94m-40.18-40.35a33.85,33.85,0,0,0-3.5.12c-.35,1.91-.64,5.23-1,10.6l-.25,3.15a12,12,0,0,0,2,.17c5.6,0,9.43-3.38,9.43-8.49,0-3.51-2.45-5.54-6.69-5.54m16.25,41.41c-3.33,0-4.13-.53-5.24-2.05l-12.6-17.45c-1-1.36-1.74-2.47-3.31-2.47h-.29l-.24,3.38c-.3,4.62-.47,8.27-.47,11,0,3,.4,4.88,1.22,5.64H358c1.74-1.56,2.4-6.81,3.39-20.55l.16-2.85c.46-6.76.81-12,.77-15.67-.05-3.21-.41-5.18-1.29-5.87h16.59c5.42,0,12.87.92,12.87,9.71,0,7.23-4.84,11.18-10.82,13a29.46,29.46,0,0,1,2.26,2.69l9.15,12.12c5.7,7.51,6.17,7.85,8.2,8.91a81.88,81.88,0,0,1-8.2.41m-56.73-36.35-7.28,15.66h11.82Zm14.15,34.85c-3.85,0-4.15-.13-7.22-10.72l-1.11-3.92c-1.86.89-5.17,1.3-10.48,1.3h-5.35l-.93,2c-.95,2.09-3.2,6.4-3.15,8.91a7.49,7.49,0,0,0,.29,2H309.76c3.1-3.07,7-10.24,12.39-21.82l3.15-6.71c2.85-6.06,5.89-12.93,5.89-13.92a6,6,0,0,0-.59-2.49h9.79s2.55,9.71,4.84,17.81l1.92,7.09c3.33,12,5.42,17.77,8.2,20a68.26,68.26,0,0,1-6.86.43m-55.45-40a30.65,30.65,0,0,0-3.15.12c-.46,3.13-.75,6.17-1,9.49,0,0-.17,2.85-.17,2.73h1.15c5.71,0,11-2,11-7.22,0-3-2.51-5.12-7.82-5.12m-1.45,17.82h-3.19l-.48,6.63c-.23,2.91-.35,5.35-.4,8.27,0,.41,1.27,1.27,4.3,1.27,6.29,0,10.45-3.13,10.45-8.32,0-5.77-4.73-7.86-10.67-7.86m.69,21.71H276.57c2-1.74,2.5-8.56,3.37-20.55l.19-2.8c.46-6.8.82-12,.76-15.71-.06-3.15-.42-5.18-1.28-5.87h17.58c4.2,0,12.59.22,12.59,9,0,5.82-5.41,9.43-10.37,10.72,7,.69,12.24,4.07,12.24,11.29,0,7.81-7.34,14-19.34,14" transform="translate(-203.66 -353.39)" style="fill:#00aeef"/><path d="M260.77,378.18a34.91,34.91,0,0,1-6.24,20.18.27.27,0,0,1-.46,0,25.41,25.41,0,0,1-4.6-6.25,1.3,1.3,0,0,0-.5,1.08c0,1.76,1.4,5.32,2.83,7.63.65,1-.33,1.8-1.3,1.22a29.94,29.94,0,0,1-8.32-11.17,1.59,1.59,0,0,0-.58,1.3c0,1.74,2.1,7.37,6.69,12.77a.27.27,0,0,1,0,.41,48.15,48.15,0,0,1-16.07,9.24,48.14,48.14,0,0,1-16.06-9.24.27.27,0,0,1,0-.41c4.6-5.4,6.69-11,6.69-12.77a1.58,1.58,0,0,0-.57-1.3,29.93,29.93,0,0,1-8.33,11.17c-1,.64-1.94-.17-1.3-1.22,1.43-2.31,2.83-5.88,2.83-7.63a1.3,1.3,0,0,0-.51-1.08,25.3,25.3,0,0,1-4.6,6.25.27.27,0,0,1-.46,0,34.87,34.87,0,0,1-6.24-20.18c0-13.57,5.72-17.69,10.67-17.69,3.27,0,5.45,1.8,5.45,4a2.72,2.72,0,0,1-1.86,2.7c.77,1.23,2.38,1.71,4.23,1.64,3.4-.11,5.54-2.13,5.69-6.78.1-3-2.26-4-4.24-4-1.28,0-1.81.24-2.09.67-1.07-1.55.65-4.58,5.1-4.58h1a2.12,2.12,0,0,1,1.61-.82,14.11,14.11,0,0,1,4.17.4c2.85.93,3.36,3.15,3.51,7.79s1.94,7.17,5.34,7.28c1.85.06,3.46-.41,4.23-1.64a2.72,2.72,0,0,1-1.86-2.7c0-2.24,2.18-4,5.45-4,4.95,0,10.67,4.12,10.67,17.69" transform="translate(-203.66 -353.39)" style="fill:#00aeef"/></svg>