<?xml version="1.0" encoding="utf-8"?>
<!-- Generator: Adobe Illustrator 24.3.0, SVG Export Plug-In . SVG Version: 6.00 Build 0)  -->
<svg version="1.1" id="Layer_1" xmlns="http://www.w3.org/2000/svg" xmlns:xlink="http://www.w3.org/1999/xlink" x="0px" y="0px"
	 viewBox="0 0 512 523" style="enable-background:new 0 0 512 523;" xml:space="preserve">
<style type="text/css">
	.st0{fill:#0073BD;}
	.st1{clip-path:url(#SVGID_2_);fill:url(#XMLID_8_);}
	.st2{clip-path:url(#SVGID_4_);fill:url(#XMLID_12_);}
	.st3{clip-path:url(#SVGID_6_);fill:url(#XMLID_13_);}
	.st4{clip-path:url(#SVGID_8_);fill:url(#XMLID_16_);}
</style>
<g id="XMLID_1_">
	<path id="XMLID_18_" class="st0" d="M92.75,87.33c-3.51,1.76-10.53,3.8-20.92,3.8c-28.82,0-45.35-19.89-45.35-45.06
		C26.48,15.95,47.54,0,73.73,0c10.09,0,15.51,1.9,19.02,3.8L89.53,21.8c-3.8-1.76-7.9-3.22-14.92-3.22
		c-12.43,0-25.75,7.46-25.75,27.21c0,17.7,10.53,27.06,25.89,27.06c6,0,10.09-1.17,14.92-3.36L92.75,87.33z"/>
	<path id="XMLID_2_" class="st0" d="M190.76,62.76c0.73,8.19,7.61,12.58,18.14,12.73c6.44,0,13.75-1.76,18.72-4.68l2.93,15.21
		c-7.46,3.66-15.95,5.12-24.43,5.12c-23.26,0-35.69-14.04-35.69-35.4c0-20.77,13.46-34.08,33.5-34.08
		c20.63,0,29.99,15.21,29.99,34.23c0,2.05-0.29,5.27-0.44,6.73h-42.72 M214.31,48.86c0-4.83-2.34-13.17-11.41-13.17
		c-7.9,0-11.7,6.88-12.29,13.17H214.31z"/>
	<polygon id="XMLID_15_" class="st0" points="256.73,88.36 235.08,24.43 256.73,24.43 268.43,69.63 268.73,69.63 280.58,24.43 
		302.08,24.43 280.43,88.36 	"/>
	<path id="XMLID_14_" class="st0" d="M307.64,45.35c0-9.36-0.29-15.51-0.73-21.07h18.43l0.59,11.85h0.44
		c3.22-9.36,9.36-13.02,15.8-13.31c3.07-0.15,4.68,0,6.58,0.44v18.72c-1.76-0.29-5.27-0.73-7.9-0.59c-7.46,0.73-12,6.14-13.31,12.43
		c-0.29,1.32-0.44,2.78-0.44,4.39v29.99h-19.46V45.35z"/>
	<path id="XMLID_3_" class="st0" d="M417.21,56.32c0,20.92-12.58,34.67-33.06,34.67s-33.21-13.75-33.21-34.67
		c0-21.07,12.73-34.67,33.21-34.67S417.21,35.4,417.21,56.32 M397.02,56.32c0-10.39-3.66-19.46-12.87-19.46
		c-9.36,0-12.87,9.07-12.87,19.46c0,10.39,3.51,19.46,12.87,19.46C393.36,75.92,397.02,66.85,397.02,56.32"/>
	<path id="XMLID_11_" class="st0" d="M425.84,44.76c0-8.05-0.29-14.77-0.73-20.48h18.43l0.44,8.92h0.44
		c2.49-4.1,9.22-10.97,19.75-10.97c12.87,0,21.21,8.78,21.21,27.65v38.47h-19.46V52.81c0-8.19-2.78-13.9-9.95-13.9
		c-5.41,0-8.78,3.8-10.09,7.46c-0.44,1.32-0.59,3.22-0.59,4.97v36.86h-19.46L425.84,44.76L425.84,44.76z"/>
	<path id="XMLID_10_" class="st0" d="M140.58,22.38c-7.75,0-15.21,3.51-19.02,9.22h-0.29V0.29l-19.46,6.73v81.33h19.46V50.32
		c0-5.41,3.51-11.41,10.39-11.41c7.31,0,10.09,5.71,10.09,14.19v35.25h19.6V50.47C161.35,31.16,153.01,22.38,140.58,22.38"/>
	<g id="XMLID_4_">
		<g>
			<defs>
				<polygon id="SVGID_1_" points="27.21,258.19 256.44,181.83 27.21,105.47 				"/>
			</defs>
			<clipPath id="SVGID_2_">
				<use xlink:href="#SVGID_1_"  style="overflow:visible;"/>
			</clipPath>
			
				<linearGradient id="XMLID_8_" gradientUnits="userSpaceOnUse" x1="-403.5529" y1="-78.7364" x2="-392.6483" y2="-78.7364" gradientTransform="matrix(17.0841 12.4123 -12.4123 17.0841 5947.5444 6455.042)">
				<stop  offset="0" style="stop-color:#00A9EB"/>
				<stop  offset="9.994510e-03" style="stop-color:#00A9EB"/>
				<stop  offset="0.3" style="stop-color:#00A8EA"/>
				<stop  offset="0.6" style="stop-color:#0081C8"/>
				<stop  offset="1" style="stop-color:#0062B0"/>
			</linearGradient>
			<polygon id="XMLID_9_" class="st1" points="106.35,-3.51 329,158.13 177.3,367.03 -45.35,205.39 			"/>
		</g>
	</g>
	<g id="XMLID_5_">
		<g>
			<defs>
				<polygon id="SVGID_3_" points="256.44,181.83 27.36,258.19 256.44,334.56 485.38,258.19 485.38,105.47 				"/>
			</defs>
			<clipPath id="SVGID_4_">
				<use xlink:href="#SVGID_3_"  style="overflow:visible;"/>
			</clipPath>
			
				<linearGradient id="XMLID_12_" gradientUnits="userSpaceOnUse" x1="-423.2135" y1="-84.1141" x2="-412.3085" y2="-84.1141" gradientTransform="matrix(8.1799 -25.1753 25.1753 8.1799 5802.2598 -9643.1387)">
				<stop  offset="0" style="stop-color:#0066B3"/>
				<stop  offset="0.0304" style="stop-color:#0075C0"/>
				<stop  offset="0.091" style="stop-color:#008ED5"/>
				<stop  offset="0.1544" style="stop-color:#00A0E3"/>
				<stop  offset="0.2218" style="stop-color:#00ABEC"/>
				<stop  offset="0.3" style="stop-color:#00AEEF"/>
				<stop  offset="0.5" style="stop-color:#00AEEF"/>
				<stop  offset="0.5929" style="stop-color:#00A7EA"/>
				<stop  offset="0.7239" style="stop-color:#0095DA"/>
				<stop  offset="0.8767" style="stop-color:#0077C1"/>
				<stop  offset="0.95" style="stop-color:#0066B3"/>
				<stop  offset="1" style="stop-color:#0066B3"/>
			</linearGradient>
			<polygon id="XMLID_7_" class="st2" points="-39.94,312.61 71.09,-29.26 552.81,127.27 441.64,469.14 			"/>
		</g>
	</g>
	<g id="XMLID_19_">
		<g>
			<defs>
				<polygon id="SVGID_5_" points="27.21,282.92 27.21,435.64 256.44,359.28 				"/>
			</defs>
			<clipPath id="SVGID_6_">
				<use xlink:href="#SVGID_5_"  style="overflow:visible;"/>
			</clipPath>
			
				<linearGradient id="XMLID_13_" gradientUnits="userSpaceOnUse" x1="-399.1075" y1="-72.5433" x2="-388.2018" y2="-72.5433" gradientTransform="matrix(17.0832 12.4117 -12.4117 17.0832 5948.0913 6471.2837)">
				<stop  offset="0" style="stop-color:#ED1A3A"/>
				<stop  offset="0.25" style="stop-color:#E11837"/>
				<stop  offset="0.4" style="stop-color:#CF3141"/>
				<stop  offset="0.575" style="stop-color:#B33848"/>
				<stop  offset="1" style="stop-color:#9B2E3C"/>
			</linearGradient>
			<polygon id="XMLID_21_" class="st3" points="106.35,173.93 329,335.73 177.15,544.62 -45.35,382.83 			"/>
		</g>
	</g>
	<g id="XMLID_22_">
		<g>
			<defs>
				<polygon id="SVGID_7_" points="256.29,359.28 27.36,435.64 256.44,512 485.52,435.64 485.52,282.92 				"/>
			</defs>
			<clipPath id="SVGID_8_">
				<use xlink:href="#SVGID_7_"  style="overflow:visible;"/>
			</clipPath>
			
				<linearGradient id="XMLID_16_" gradientUnits="userSpaceOnUse" x1="-429.045" y1="-82.235" x2="-418.1405" y2="-82.235" gradientTransform="matrix(8.1816 -25.1804 25.1804 8.1816 5803.6602 -9629.6406)">
				<stop  offset="0" style="stop-color:#9B2E3C"/>
				<stop  offset="0.0505" style="stop-color:#AC2A3C"/>
				<stop  offset="0.1509" style="stop-color:#C8233B"/>
				<stop  offset="0.2515" style="stop-color:#DD1E3A"/>
				<stop  offset="0.3514" style="stop-color:#E91B3A"/>
				<stop  offset="0.45" style="stop-color:#ED1A3A"/>
				<stop  offset="0.6911" style="stop-color:#C4243B"/>
				<stop  offset="0.95" style="stop-color:#9B2E3C"/>
				<stop  offset="1" style="stop-color:#9B2E3C"/>
			</linearGradient>
			<polygon id="XMLID_24_" class="st4" points="-40.08,490.06 71.09,148.19 552.81,304.71 441.64,646.58 			"/>
		</g>
	</g>
</g>
</svg>
